<?xml version="1.0" encoding="UTF-8" standalone="no"?> <svg  viewBox="0 0 512 512"  xmlns="http://www.w3.org/2000/svg"><path d="m184.429688 101.929688c-1.859376 1.859374-2.929688 4.441406-2.929688 7.070312s1.070312 5.210938 2.929688 7.070312c1.859374 1.859376 4.441406 2.929688 7.070312 2.929688s5.210938-1.070312 7.070312-2.929688c1.859376-1.859374 2.929688-4.441406 2.929688-7.070312s-1.070312-5.210938-2.929688-7.070312c-1.859374-1.859376-4.441406-2.929688-7.070312-2.929688s-5.210938 1.070312-7.070312 2.929688zm0 0"/><path d="m502 316h-37.5v-104.5c0-3.53125-1.863281-6.800781-4.902344-8.601562-3.039062-1.804688-6.800781-1.867188-9.898437-.171876l-106.699219 58.402344v-49.628906c0-3.53125-1.863281-6.800781-4.902344-8.601562-3.039062-1.804688-6.800781-1.867188-9.898437-.171876l-106.699219 58.402344v-49.628906c0-3.53125-1.863281-6.800781-4.902344-8.601562-3.039062-1.804688-6.800781-1.867188-9.898437-.171876l-106.699219 58.402344v-132.191406c0-5.480469 4.457031-9.9375 9.9375-9.9375h41.5625c5.523438 0 10-4.476562 10-10s-4.476562-10-10-10h-41.5625c-16.507812 0-29.9375 13.429688-29.9375 29.9375v.0625h-60v-53.65625c0-30.515625 24.828125-55.34375 55.347656-55.34375 17.566406 0 33.707032 8.070312 44.277344 22.136719 3.316406 4.414062 9.585938 5.304687 14.003906 1.988281 4.414063-3.316406 5.304688-9.585938 1.988282-14-1.3125-1.75-2.691407-3.429688-4.128907-5.039062 8.269531-3.34375 17.144531-5.085938 26.199219-5.085938 22.621094 0 43.949219 11.054688 57.050781 29.574219 1.945313 2.753906 5.035157 4.222656 8.171875 4.222656 1.996094 0 4.011719-.597656 5.765625-1.835937 4.507813-3.191407 5.578125-9.429688 2.386719-13.9375-2.019531-2.859376-4.199219-5.574219-6.507812-8.148438h59.882812c19.058594 0 34.5625 15.503906 34.5625 34.5625s-15.503906 34.5625-34.5625 34.5625h-52.9375c-5.523438 0-10 4.476562-10 10s4.476562 10 10 10h52.9375c30.085938 0 54.5625-24.476562 54.5625-54.5625s-24.476562-54.5625-54.5625-54.5625h-85.3125c-.175781 0-.34375.015625-.515625.027344-12.511719-6.414063-26.511719-9.902344-40.921875-9.902344-15.140625 0-29.902344 3.777344-43.0625 10.972656-11.628906-7.117187-25.109375-10.972656-39.277344-10.972656-41.546875 0-75.347656 33.800781-75.347656 75.34375v426.65625c0 5.523438 4.476562 10 10 10h492c5.523438 0 10-4.476562 10-10v-176c0-5.523438-4.476562-10-10-10zm-57.5-87.628906v87.628906h-101.5v-32.074219zm-121.5 0v87.628906h-101.5v-32.074219zm-243-51.371094h-60v-28h60zm-60 20h60v295h-20v-60.617188c0-5.523437-4.476562-10-10-10s-10 4.476563-10 10v60.617188h-20zm80 86.925781 101.5-55.554687v87.628906h-39.5c-5.523438 0-10 4.476562-10 10v166h-52zm392 208.074219h-320v-156h320zm0 0"/><path d="m217 453h46c5.523438 0 10-4.476562 10-10v-48c0-5.523438-4.476562-10-10-10h-46c-5.523438 0-10 4.476562-10 10v48c0 5.523438 4.476562 10 10 10zm10-48h26v28h-26zm0 0"/><path d="m309 453h46c5.523438 0 10-4.476562 10-10v-48c0-5.523438-4.476562-10-10-10h-46c-5.523438 0-10 4.476562-10 10v48c0 5.523438 4.476562 10 10 10zm10-48h26v28h-26zm0 0"/><path d="m401 453h46c5.523438 0 10-4.476562 10-10v-48c0-5.523438-4.476562-10-10-10h-46c-5.523438 0-10 4.476562-10 10v48c0 5.523438 4.476562 10 10 10zm10-48h26v28h-26zm0 0"/><path d="m50 401.328125c2.628906 0 5.210938-1.058594 7.070312-2.929687 1.859376-1.859376 2.929688-4.429688 2.929688-7.070313 0-2.628906-1.070312-5.207031-2.929688-7.066406-1.859374-1.863281-4.441406-2.933594-7.070312-2.933594s-5.210938 1.070313-7.070312 2.933594c-1.859376 1.859375-2.929688 4.4375-2.929688 7.066406 0 2.640625 1.070312 5.210937 2.929688 7.070313 1.859374 1.871093 4.429687 2.929687 7.070312 2.929687zm0 0"/></svg>